<svg xmlns="http://www.w3.org/2000/svg" xmlns:xlink="http://www.w3.org/1999/xlink" preserveAspectRatio="xMidYMid" width="30" height="25.094" viewBox="0 0 30 25.094">
  <defs>
    <style>
      .cls-1 {
        fill: #fff;
        fill-rule: evenodd;
      }
    </style>
  </defs>
  <path d="M27.766,19.996 L24.029,19.996 L24.036,25.097 L18.414,19.996 L14.105,19.996 C12.870,19.996 11.869,19.245 11.869,18.009 C11.869,18.009 21.877,17.954 22.814,17.954 C23.752,17.954 24.968,16.750 24.968,15.813 C24.968,14.875 24.968,4.904 24.968,4.904 L27.766,4.904 C29.001,4.904 30.003,5.843 30.003,7.078 L30.003,18.009 C30.003,19.245 29.001,19.996 27.766,19.996 ZM21.807,16.954 L11.671,16.954 L5.966,22.090 L5.965,16.954 L2.236,16.954 C1.001,16.954 -0.000,15.953 -0.000,14.717 L-0.000,2.230 C-0.000,0.995 1.001,-0.006 2.236,-0.006 L21.807,-0.006 C23.042,-0.006 24.044,0.995 24.044,2.230 L24.044,14.717 C24.044,15.953 23.042,16.954 21.807,16.954 Z" class="cls-1"/>
</svg>
