<svg xmlns="http://www.w3.org/2000/svg" xmlns:xlink="http://www.w3.org/1999/xlink" preserveAspectRatio="xMidYMid" width="31" height="30" viewBox="0 0 31 30">
  <defs>
    <style>
      .cls-1 {
        fill: #fff;
        filter: url(#drop-shadow-1);
        fill-rule: evenodd;
      }
    </style>

    <filter id="drop-shadow-1" filterUnits="userSpaceOnUse">
      <feOffset dy="1" in="SourceAlpha"/>
      <feGaussianBlur stdDeviation="1" result="dropBlur"/>
      <feFlood flood-opacity="0.13"/>
      <feComposite operator="in" in2="dropBlur" result="dropShadowComp"/>
      <feComposite in="SourceGraphic" result="shadowed"/>
    </filter>
  </defs>
  <path d="M15.502,28.173 C8.235,28.173 2.324,22.261 2.324,14.995 C2.324,7.728 8.235,1.816 15.502,1.816 C22.769,1.816 28.681,7.728 28.681,14.995 C28.681,22.261 22.769,28.173 15.502,28.173 ZM26.616,16.798 C26.231,16.677 23.132,15.753 19.605,16.317 C21.077,20.363 21.676,23.658 21.792,24.343 C24.317,22.635 26.115,19.931 26.616,16.798 ZM19.899,25.374 C19.732,24.386 19.078,20.944 17.498,16.837 C17.473,16.846 17.448,16.854 17.424,16.862 C11.075,19.075 8.795,23.478 8.593,23.892 C10.501,25.380 12.900,26.268 15.502,26.268 C17.061,26.268 18.548,25.949 19.899,25.374 ZM7.139,22.538 C7.394,22.102 10.484,16.986 16.289,15.110 C16.436,15.063 16.584,15.018 16.733,14.976 C16.450,14.337 16.142,13.697 15.820,13.066 C10.199,14.748 4.744,14.678 4.251,14.668 C4.248,14.782 4.246,14.897 4.246,15.012 C4.246,17.903 5.342,20.542 7.139,22.538 ZM4.483,12.706 C4.987,12.713 9.625,12.733 14.890,11.335 C13.025,8.019 11.013,5.232 10.717,4.825 C7.567,6.310 5.213,9.213 4.483,12.706 ZM12.864,4.068 C13.175,4.485 15.220,7.269 17.064,10.658 C21.067,9.158 22.762,6.880 22.964,6.592 C20.976,4.828 18.362,3.755 15.502,3.755 C14.594,3.755 13.711,3.864 12.864,4.068 ZM24.215,7.893 C23.978,8.214 22.092,10.632 17.930,12.332 C18.192,12.868 18.443,13.413 18.677,13.962 C18.759,14.157 18.840,14.350 18.919,14.543 C22.665,14.072 26.386,14.827 26.757,14.905 C26.733,12.249 25.783,9.809 24.215,7.893 Z" class="cls-1"/>
</svg>
