<svg xmlns="http://www.w3.org/2000/svg" xmlns:xlink="http://www.w3.org/1999/xlink" preserveAspectRatio="xMidYMid" width="35" height="25" viewBox="0 0 35 25">
  <defs>
    <style>
      .cls-1 {
        fill: #fff;
        filter: url(#drop-shadow-1);
        fill-rule: evenodd;
      }
    </style>

    <filter id="drop-shadow-1" filterUnits="userSpaceOnUse">
      <feOffset dy="1" in="SourceAlpha"/>
      <feGaussianBlur stdDeviation="1" result="dropBlur"/>
      <feFlood flood-opacity="0.13"/>
      <feComposite operator="in" in2="dropBlur" result="dropShadowComp"/>
      <feComposite in="SourceGraphic" result="shadowed"/>
    </filter>
  </defs>
  <path d="M33.146,11.648 C32.044,11.836 30.445,11.641 29.598,11.289 C31.358,11.143 32.550,10.343 33.009,9.257 C32.375,9.648 30.404,10.073 29.318,9.668 C29.264,9.412 29.205,9.169 29.145,8.949 C28.318,5.904 25.480,3.449 22.508,3.746 C22.748,3.649 22.991,3.559 23.237,3.476 C23.562,3.359 25.482,3.046 25.181,2.369 C24.925,1.771 22.579,2.818 22.137,2.955 C22.720,2.737 23.685,2.360 23.788,1.688 C22.894,1.811 22.018,2.234 21.340,2.848 C21.585,2.585 21.771,2.264 21.810,1.918 C19.427,3.443 18.035,6.513 16.909,9.494 C16.025,8.635 15.239,7.960 14.537,7.583 C12.564,6.526 10.205,5.421 6.503,4.044 C6.389,5.270 7.108,6.902 9.180,7.985 C8.731,7.925 7.910,8.060 7.255,8.216 C7.522,9.623 8.395,10.780 10.761,11.339 C9.680,11.410 9.121,11.658 8.615,12.187 C9.107,13.164 10.310,14.314 12.470,14.078 C10.066,15.115 11.490,17.036 13.446,16.749 C10.111,20.199 4.851,19.943 1.831,17.060 C9.715,27.815 26.856,23.419 29.409,13.060 C31.325,13.076 32.448,12.398 33.146,11.648 Z" class="cls-1"/>
</svg>
