<svg xmlns="http://www.w3.org/2000/svg" xmlns:xlink="http://www.w3.org/1999/xlink" preserveAspectRatio="xMidYMid" width="20" height="15" viewBox="0 0 20 15">
  <defs>
    <style>
      .cls-1 {
        fill: #fff;
        stroke: #fff;
        stroke-linejoin: round;
        stroke-width: 1px;
        fill-rule: evenodd;
      }
    </style>
  </defs>
  <path d="M9.910,11.479 L10.004,11.499 C10.016,11.499 10.047,11.492 10.098,11.479 L10.229,11.479 L10.454,11.401 C10.466,11.401 10.472,11.398 10.472,11.391 C10.472,11.385 10.482,11.378 10.500,11.372 C10.519,11.365 10.544,11.352 10.575,11.333 C10.606,11.313 10.647,11.290 10.697,11.264 L16.169,5.637 C16.394,5.389 16.506,5.093 16.506,4.747 C16.506,4.402 16.391,4.109 16.159,3.868 C15.928,3.627 15.650,3.507 15.326,3.507 C15.001,3.507 14.720,3.630 14.482,3.878 L10.004,8.509 L5.525,3.878 C5.275,3.630 4.991,3.507 4.673,3.507 C4.354,3.507 4.076,3.630 3.839,3.878 C3.614,4.138 3.502,4.438 3.502,4.777 C3.502,5.115 3.614,5.402 3.839,5.637 L9.310,11.264 C9.310,11.277 9.317,11.284 9.329,11.284 L9.498,11.382 C9.548,11.382 9.635,11.414 9.760,11.479 L9.910,11.479 Z" class="cls-1"/>
</svg>
