<svg xmlns="http://www.w3.org/2000/svg" xmlns:xlink="http://www.w3.org/1999/xlink" preserveAspectRatio="xMidYMid" width="466" height="315" viewBox="0 0 466 315">
  <defs>
    <style>
      .cls-1, .cls-2 {
        fill: #e6631f;
      }

      .cls-1, .cls-3, .cls-4, .cls-5 {
        fill-rule: evenodd;
      }

      .cls-3 {
        fill: #fff;
      }

      .cls-4 {
        fill: #f9ad81;
      }

      .cls-5 {
        fill: #f1f1f1;
      }
    </style>
  </defs>
  <g>
    <path d="M173.500,275.377 C257.171,275.377 325.000,282.118 325.000,290.434 C325.000,298.750 257.171,305.491 173.500,305.491 C89.829,305.491 22.000,298.750 22.000,290.434 C22.000,282.118 89.829,275.377 173.500,275.377 Z" class="cls-1"/>
    <path d="M307.500,287.264 C365.214,287.264 412.000,293.473 412.000,301.132 C412.000,308.791 365.214,315.000 307.500,315.000 C249.786,315.000 203.000,308.791 203.000,301.132 C203.000,293.473 249.786,287.264 307.500,287.264 Z" class="cls-1"/>
    <ellipse cx="345.5" cy="286.469" rx="88.5" ry="13.469" class="cls-2"/>
    <path d="M343.999,179.833 C343.999,149.909 321.745,125.188 292.863,121.233 C291.833,120.922 290.742,120.744 289.616,120.694 C289.616,120.685 289.616,120.675 289.616,120.666 C289.616,67.831 246.720,24.999 193.806,24.999 C154.495,24.999 120.720,48.640 105.948,82.456 C102.440,81.657 98.793,81.221 95.043,81.221 C70.797,81.221 50.687,98.855 46.846,121.976 C20.080,127.674 0.000,151.408 0.000,179.833 C0.000,212.206 26.042,238.490 58.347,238.978 C58.508,238.984 58.666,239.001 58.828,239.001 L289.020,239.001 C290.360,239.001 291.651,238.800 292.863,238.434 C321.745,234.479 343.999,209.758 343.999,179.833 Z" class="cls-3"/>
    <path d="M445.000,83.205 C445.000,67.124 432.773,53.839 416.905,51.714 C416.338,51.547 415.739,51.451 415.120,51.425 C415.120,51.419 415.120,51.414 415.120,51.409 C415.120,23.017 391.553,-0.000 362.480,-0.000 C340.882,-0.000 322.326,12.704 314.210,30.876 C312.282,30.447 310.279,30.212 308.218,30.212 C294.897,30.212 283.848,39.688 281.738,52.113 C267.032,55.175 256.000,67.929 256.000,83.205 C256.000,100.601 270.308,114.726 288.057,114.988 C288.145,114.991 288.232,115.001 288.321,115.001 L414.793,115.001 C415.529,115.001 416.238,114.893 416.905,114.696 C432.773,112.570 445.000,99.286 445.000,83.205 Z" class="cls-4"/>
    <path d="M466.000,198.575 C466.000,172.565 446.204,151.079 420.512,147.642 C419.595,147.371 418.625,147.217 417.623,147.174 C417.623,147.165 417.623,147.157 417.623,147.149 C417.623,101.227 379.466,63.999 332.397,63.999 C297.429,63.999 267.385,84.547 254.244,113.938 C251.124,113.244 247.880,112.865 244.544,112.865 C222.976,112.865 205.088,128.192 201.671,148.288 C177.861,153.240 160.000,173.868 160.000,198.575 C160.000,226.712 183.165,249.557 211.902,249.981 C212.045,249.986 212.185,250.001 212.329,250.001 L417.093,250.001 C418.286,250.001 419.434,249.826 420.512,249.508 C446.204,246.070 466.000,224.584 466.000,198.575 Z" class="cls-5"/>
  </g>
</svg>
